# xmcd
#
# Track frame offsets:
#	300
#	13643
#	26766
#	49112
#	62258
#	70039
#	86564
#	94050
#	103656
#	115950
#	143653
#	153788
#	165145
#	200626
#	214754
#	226232
#	240633
#	256639
#	267054
#
# Disc length: 3942 seconds
#
# Revision: 0
# Processed by: cddbd v1.5.1PL2 Copyright (c) Steve Scherf et al.
# Submitted via: audiograbber 1.83.01
#
DISCID=ec0f6213
DTITLE=Rytmic 2 - Zabava
DYEAR=2005
DGENRE=Folklore
TTITLE0=Mam frajarku cernooku
TTITLE1=Preco Pan Boh tresce farara
TTITLE2=Morava
TTITLE3=V zahradocke
TTITLE4=Idzem po valale
TTITLE5=Hodzel do nas
TTITLE6=Ked soferi nastartuju
TTITLE7=Ked som isiel, isiel
TTITLE8=A na hure tatarecka
TTITLE9=Syncek maly
TTITLE10=Si moja mila
TTITLE11=Javorinka sediva
TTITLE12=Zabava: Neska mi tu zabavu hrame, Naco pojdem domov, Caje caje
TTITLE13=Trny
TTITLE14=Horenka
TTITLE15=Do rana je mala chvilka
TTITLE16=Kolo nas, popred nas
TTITLE17=Hasici
TTITLE18=Degesch dance in the city, Dzelem dzelem, Na ciganskej svatbe, Sules m
TTITLE18=a, Mamo mamo
EXTD=
EXTT0=
EXTT1=
EXTT2=
EXTT3=
EXTT4=
EXTT5=
EXTT6=
EXTT7=
EXTT8=
EXTT9=
EXTT10=
EXTT11=
EXTT12=
EXTT13=
EXTT14=
EXTT15=
EXTT16=
EXTT17=
EXTT18=
PLAYORDER=
